<?xml version="1.0" encoding="utf-8"?>
<!-- Generator: Adobe Illustrator 19.2.1, SVG Export Plug-In . SVG Version: 6.00 Build 0)  -->
<!DOCTYPE svg PUBLIC "-//W3C//DTD SVG 1.1//EN" "http://www.w3.org/Graphics/SVG/1.1/DTD/svg11.dtd">
<svg version="1.1" id="Layer_1" xmlns="http://www.w3.org/2000/svg" xmlns:xlink="http://www.w3.org/1999/xlink" x="0px" y="0px"
	 viewBox="0 0 841.9 595.3" style="enable-background:new 0 0 841.9 595.3;" xml:space="preserve">
<style type="text/css">
	.st0{fill:#000058;}
</style>
<g>
	<g>
		<g>
			<path class="st0" d="M278.8,259.5c-19.6-36.2-84.9-68.2-132-53.2c-19.2,6.1-5.3,12.6,0.6,14.9c-4.7-18.5,27.1-14.7,21.5,5.5
				c26.9,13.5,29.8,27.5,31.4,32.3c13.3,8.9,24.4,17.6,24.5,20.3c0.3,5.3-22.2,14.7-25.2,15.9c-3.1,1.2-16.3,0.9-25.3-3.9
				c-17.6-7-85.3-33.4-87.4-1.6c-0.6,13.3,43,53.5,33.3,88.8c-9.7,4.6-9.9,13.3-9.2,14.3c4.9,3.4,35.7,3.1,41,0
				c5.1-11.6,5-25.3-2.5-47.7c6.2,11.7,14.2,14,13.4,35.7c-9.4,5.8-7.4,11.1-7.2,11.9c5.7,3.6,41.7,1.9,44.6,0
				c1.5-0.6,8.2-7.7,7.8-27.2c5.5-15.3,13.5-19.9,20-29.9c-8.6,26.1-6.5,18.8-9.1,41.4c-9.2,3.7-13.1,14.1-11.7,15.7
				c3.3,3.2,43.8,5.6,54.3,0C305.5,337.6,292.8,285.3,278.8,259.5z"/>
		</g>
		
			<ellipse transform="matrix(0.9034 -0.4287 0.4287 0.9034 -90.1761 102.0225)" class="st0" cx="181.4" cy="251.2" rx="3.1" ry="4"/>
	</g>
	<g>
		<g>
			<path class="st0" d="M364.8,313.6l7.6,0.6V326h-34.7v-11.3l4.9-0.5c2.5-0.2,3.8-1.1,3.8-4.7v-78.9c0-3.5-0.8-4.4-3.6-4.6
				l-5.4-0.5v-11.8h27.4v67.1c11.8-1.1,23.6-11.2,23.6-19.1c0-2.2-1.4-2.8-3.6-3.2l-4.1-0.5v-11.5h32v11.8l-7.4,0.8
				c-0.9,8.7-6,17.2-14.2,23.5l15.6,30.9l8.5,0.6V326H392l-16.7-35.3c-3.6,1.4-6.8,2.2-10.6,2.7v20.2H364.8z"/>
			<path class="st0" d="M491.7,310c0,3.2,0.8,4.3,3.5,4.4l4.6,0.3V326h-23.3l-0.5-8.3l-0.5-0.2c-3.9,5.7-10.9,10.6-21.7,10.6
				c-23,0-31.5-16.2-31.5-38.3c0-27.7,13.7-45.2,41.6-45.2c5.2,0,16.7,1.1,27.9,5.4v60H491.7z M473.2,260.8c-2.4-0.9-7.1-2-11.8-2
				c-15.6,0-20.2,14.3-20.2,30.4c0,12.4,3.2,24.7,16.2,24.7c10.1,0,15.8-6.9,15.8-14.3V260.8z"/>
			<path class="st0" d="M536.6,276.4v37.2l12.6,0.6V326h-39.7v-11.3l4.7-0.5c3.5-0.3,3.9-1.6,3.9-5.2v-45.7c0-3.2-0.9-4.1-3.6-4.4
				l-5.4-0.3v-12H535v12h0.2c2.8-6.8,9.8-14,22.4-14c4.6,0,10.1,0.8,14.5,3v26.3l-15.8,1.1v-9.9c0-2.7-0.2-3.6-1.4-4.1
				c-1.1-0.6-2.4-0.8-4.4-0.8C541.9,260.2,536.6,267.3,536.6,276.4z"/>
			<path class="st0" d="M589.5,230.6c0-3.5-0.9-4.4-3.9-4.6l-5-0.5v-11.8h27.3v44c5.5-10.2,15-13.1,23-13.1
				c18.3,0,24.7,10.9,24.7,26.9v42.2l8,0.5V326h-35v-11.2l4.9-0.5c2.7-0.3,3.3-1.9,3.3-5.2v-33.6c0-9.5-2-15.6-12.6-15.6
				c-9.6,0-16.2,7.7-16.2,17.2v36.5l7.7,0.3v12h-34.8v-11.3l4.6-0.5c3-0.3,4.1-1.3,4.1-5.2L589.5,230.6L589.5,230.6z"/>
			<path class="st0" d="M746.7,309.2c0,3.8,0.6,4.7,3.5,5l4.4,0.5V326h-25.2v-10.2h-0.3c-4.7,8.3-13.5,12.4-23.6,12.4
				c-16.5,0-24.7-8.7-24.7-26.9v-37.8c0-3.3-1.1-4.3-3.9-4.6l-4.4-0.3v-12h27.1V297c0,10.4,1.9,15.9,12.1,15.9
				c9.3,0,16.5-7.2,16.5-17.5v-31.8c0-3.5-0.9-4.4-3.8-4.7l-4.3-0.3v-12h26.6L746.7,309.2L746.7,309.2z"/>
		</g>
		<g>
			<path class="st0" d="M365.2,355.4v24.8h-2.9v-11.6h-12.9v11.6h-2.9v-24.8h2.9V366h12.9v-10.6H365.2z"/>
			<path class="st0" d="M408.6,355.4h13.9v2.5h-10.9v8.3h9.4v2.5h-9.4v8.8h11.2v2.5h-14.1v-24.6H408.6z"/>
			<path class="st0" d="M464.3,355.4h2.9v22.2h11.1v2.5h-14V355.4z"/>
			<path class="st0" d="M519.5,375.9c1.2,0.8,3.8,2.1,6.7,2.1c2.5,0,5.2-0.8,5.2-4.6c0-3-2.6-3.9-5.6-4.8c-3.6-1-7.1-2.3-7.1-6.9
				c0-4.1,3.2-6.9,7.9-6.9c3.4,0,6.3,1.6,8,3.3l-1.6,2c-1.9-1.7-4.1-2.8-6.4-2.8c-2.1,0-4.8,0.9-4.8,4c0,2.9,2.5,3.8,5.7,4.8
				c3.4,1.1,6.9,2.4,6.9,7.1s-3.1,7.3-8.3,7.3c-3.6,0-6.9-1.5-7.9-2.3L519.5,375.9z"/>
			<path class="st0" d="M576.8,380.2v-24.8h2.9v24.8H576.8z"/>
			<path class="st0" d="M641.9,355.4v24.8h-3.2L626,359.5l0,0v20.7h-2.9v-24.8h3.4l12.4,20.4l0,0v-20.4L641.9,355.4L641.9,355.4z"/>
			<path class="st0" d="M695,365.1l7.9,15h-3.3l-6.6-12.6l-4.8,6.3v6.3h-2.9v-24.8h2.9v14.5l10.7-14.5h3.3L695,365.1z"/>
			<path class="st0" d="M743.6,380.2v-24.8h2.9v24.8H743.6z"/>
		</g>
	</g>
</g>
</svg>
